# xmcd
#
# Track frame offsets:
#	150
#	11137
#	29023
#	48525
#	60906
#	74404
#	86881
#	104407
#	118440
#	134856
#	148873
#	161121
#	178753
#	197895
#	213129
#
# Disc length: 2987 seconds
#
# Revision: 0
# Processed by: cddbd v1.5.2PL0 Copyright (c) Steve Scherf et al.
# Submitted via: dBpowerAMP V4.0
#
DISCID=f40ba90f
DTITLE=Milburn Mountain Boys - Bootleg John
DYEAR=2004
DGENRE=Bluegrass
TTITLE0=Dixieland For Me
TTITLE1=Walls Of Time
TTITLE2=Lonsome Old Home
TTITLE3=Salt Creek
TTITLE4=Sweethearts In Heaven
TTITLE5=God Gave You To Me
TTITLE6=Wedding Bells
TTITLE7=Rawhide
TTITLE8=Tennesse 1949
TTITLE9=Dreaming Of A Little Cabin
TTITLE10=Kentucky Girl
TTITLE11=Southern Flavour
TTITLE12=Take Me To The Mountain
TTITLE13=Dusty Miller
TTITLE14=Bootleg John
EXTD=Milburn Mountain Boys - Bootleg John
EXTT0=
EXTT1=
EXTT2=
EXTT3=
EXTT4=
EXTT5=
EXTT6=
EXTT7=
EXTT8=
EXTT9=
EXTT10=
EXTT11=
EXTT12=
EXTT13=
EXTT14=
PLAYORDER=
